<?xml version="1.0" encoding="utf-8"?>
<!-- Generator: Adobe Illustrator 16.0.0, SVG Export Plug-In . SVG Version: 6.00 Build 0)  -->
<!DOCTYPE svg PUBLIC "-//W3C//DTD SVG 1.1//EN" "http://www.w3.org/Graphics/SVG/1.1/DTD/svg11.dtd">
<svg version="1.1" id="Layer_1" xmlns="http://www.w3.org/2000/svg" xmlns:xlink="http://www.w3.org/1999/xlink" x="0px" y="0px"
	 width="245px" height="55px" viewBox="0 0 245 55" enable-background="new 0 0 245 55" xml:space="preserve">
<path fill-rule="evenodd" clip-rule="evenodd" fill="#FFFFFF" d="M11.513,0.206l6.441,0.016l1.296-0.01
	c0.419,1.63,0.912,3.223,1.315,4.857c0.777,3.152,1.828,6.586,2.657,9.796c1.276,4.943,2.704,9.748,3.935,14.746
	c0.436,1.769,0.824,3.256,1.249,4.979c0.401,1.624,0.76,3.486,1.08,5.179c0.03-0.058,0.018-0.019,0.062-0.15
	c0.003-0.009,0.041-0.15,0.042-0.157c0.023-0.096,0.042-0.219,0.061-0.321l0.41-1.937c0.553-2.59,1.227-5.031,1.842-7.504
	c0.767-3.081,1.772-6.728,2.631-9.822c0.899-3.239,1.751-6.534,2.657-9.8c0.449-1.619,0.854-3.287,1.33-4.9l1.333-4.953h1.487
	l6.397-0.018l0.23-0.011l3.571,0.024l7.561-0.007l-0.002,54.59l-7.563,0.003l-0.059-0.008v0.131h7.817V0.087H11.438
	C11.492,0.25,11.472,0.212,11.513,0.206z"/>
<path fill-rule="evenodd" clip-rule="evenodd" fill="#F89679" d="M51.517,17.982c-0.063,0.661,0.725,4.341,0.924,5.202
	c0.206,0.881,0.32,1.789,0.493,2.642l2.556,12.962c0.178,0.875,0.272,1.733,0.488,2.607c0.211,0.848,0.343,1.768,0.506,2.616
	l1.56,7.73c0.633,3.215,0.932,2.624-1.106,2.624c-0.38,0-4.338,0.101-4.502-0.092c-0.088-0.14-0.364-1.943-0.436-2.299l-0.46-2.264
	l-0.006,5.093l7.563-0.003l0.002-54.59l-7.561,0.007L51.517,17.982z"/>
<path fill-rule="evenodd" clip-rule="evenodd" fill="#F89679" d="M7.688,54.803l-0.002-5.374l-0.478,2.414
	c-0.104,0.531-0.277,2.114-0.473,2.446c-0.163,0.174-2.774,0.078-2.986,0.078c-0.919,0-2.156,0.068-3.037-0.021
	c-0.023-0.307,0.645-3.414,0.743-4.006c0.21-1.281,0.548-2.735,0.787-4.026l1.002-5.044c0.07-0.336,0.09-0.688,0.163-1.046
	c0.1-0.491,0.405-1.606,0.369-2.035c-0.08,0.271-0.016,0.326-0.282,0.409c-0.054-0.125-0.111-1.579-0.137-1.893
	c-0.181,0.199-0.208,0.581-0.282,0.899c-0.096,0.419-0.134,0.729-0.403,0.791c-0.226-0.453,0.235-2.397-0.131-3.027
	c-0.525,0.248-0.865,0.834-1.452,0.868c0-0.496,0.81-1.35,1.187-1.722c0.264-0.261,0.463-0.437,0.824-0.635
	c0.426-0.236,0.261-0.236,0.462-1.003c0.237-0.911,0.924-2.13,1.46-2.927c0.083-0.12,0.537-0.754,0.575-0.881
	c0.098-0.78,0.372-1.864,0.539-2.634c0.196-0.907,0.307-1.759,0.493-2.627c0.264-1.232,0.504-2.802,0.77-3.925
	c0.07-0.295,0.168-1.056,0.297-1.256l-0.002-0.498L7.686,0.217L0.005,0.212L0,54.805L7.688,54.803z"/>
<path fill-rule="evenodd" clip-rule="evenodd" fill="#FBB39B" d="M31.509,38.518l-0.371,1.24c-0.212,1.152-1.065,3.847-1.315,5.087
	c-0.093,0.457-0.224,1.366-0.465,1.621l-1.03-4.109c-0.183-0.771-0.932-3.63-0.976-4.17c-0.042-0.254-0.155-0.53-0.23-0.798
	c0.021-0.116-0.429-1.048-0.521-1.245c-0.194-0.419-0.343-0.834-0.511-1.268c-0.158-0.41-0.366-0.81-0.547-1.225
	c-0.692-1.581-1.444-3.549-2.131-5.063c-0.158-0.348-0.37-0.997-0.535-1.224c0.007,0.551-0.127,1.328,0.144,1.747
	c0.994,1.539,0.976,2.62,1.203,4.51c0.118,0.964,0.451,2.529,0.214,3.422c-0.179,0.682-0.659,1.693-1.189,2.184
	c-0.183,0.168-0.034,0.124-0.325,0.134l0.124-0.562l-0.477,0.036c0.057-0.25,0.085-0.099,0.16-0.218
	c0.104-0.163-0.059,0.123,0.042-0.094l0.052-0.104c0.118-0.245,0.012-0.007,0.033-0.219c0.029-0.287,0.542-0.472,0.456-1.493
	c-0.522,0.063-0.855,0.591-1.191,0.869l0.692,2.99c0.001,0.073,0.32,1.137,0.353,1.211c0.088,0.068,0.028,0.005,0.104,0.107
	c0.008,0.012,0.02,0.026,0.026,0.039c0.01,0.012,0.018,0.027,0.024,0.041l0.617,1.411c0.231,0.55,0.486,1.004,0.707,1.578
	c0.783,2.037,2.542,5.892,3.5,8.134c0.16,0.377,0.511,1.318,0.726,1.601l1.488,0.024c0.157-0.477,0.395-1.031,0.594-1.436
	c0.208-0.42,0.361-0.898,0.566-1.329c0.819-1.72,1.495-3.559,2.322-5.372c0.204-0.45,0.367-0.869,0.553-1.35
	c0.093-0.238,0.202-0.438,0.302-0.661c0.118-0.263,0.157-0.45,0.356-0.649c0.026-0.272-0.005,0.193,0.05-0.159
	c0.03-0.189-0.001-0.109,0.054-0.309c0.075-0.265,0.158-0.405,0.204-0.646c0.061-0.455,0.189-0.739,0.271-1.104
	c0.462-2.01,1.173-4.339,1.591-6.294c0.289-1.356,1.102-3.857,1.351-5.212l2.169-8.292c0.207-0.682,0.353-1.475,0.519-2.104
	L43.921,9.43c-0.15,0.14-1.41,3.203-1.588,3.627l-3.081,7.287c-0.48,1.176-1.013,2.43-1.526,3.616
	c-1.051,2.425-1.998,4.873-3.071,7.288L31.509,38.518z"/>
<path fill-rule="evenodd" clip-rule="evenodd" fill="#FBB39B" d="M45.528,5.524c-0.208,1.87-0.067,4.478-0.067,6.446
	c0,1.081,0,2.161,0,3.239c0,1.002,0.063,2.243-0.018,3.213c-0.033,0.356-0.09,0.966,0.047,1.242c0.041-0.305,0.1-0.542,0.263-0.75
	c0.158,0.199,3.646,19.304,4.23,22.316c0.4,2.058,0.798,4.512,1.224,6.53c0.083,0.392,0.064,0.658,0.211,0.902l0.005-30.81
	c-0.167-0.271-1.079-5.565-1.314-6.624c-0.147-0.661-0.313-1.485-0.422-2.18l-0.854-4.417c-0.291-1.497-0.619-2.939-0.867-4.437
	l-0.23,0.011c-0.036,0.251-0.431,1.125-0.543,1.382c-0.188,0.426-0.4,0.961-0.565,1.34C46.25,3.801,45.891,4.609,45.528,5.524z"/>
<path fill-rule="evenodd" clip-rule="evenodd" fill="#F89679" d="M27.122,37.389c0.075,0.268,0.188,0.544,0.23,0.798
	c0.224,0.111,0.147,0.031,0.359,0.591l0.78,1.894c0.083,0.219,0.173,0.404,0.272,0.623c0.114,0.248,0.173,0.39,0.261,0.64
	l0.587,1.194c0.194-0.264,0.88-2.014,1.097-2.544c0.144-0.346,0.215-0.669,0.429-0.826l0.371-1.24
	c0.084-0.724,0.432-1.732,0.618-2.488c0.203-0.822,0.418-1.586,0.614-2.376c0.587-2.376,1.289-4.827,1.854-7.169l1.219-4.753
	c0.863-3.158,1.625-6.376,2.466-9.545l1.249-4.791c0.274-1.115,1.752-6.598,1.812-7.17h-1.487l-1.333,4.953
	c-0.476,1.614-0.881,3.282-1.33,4.9c-0.906,3.266-1.758,6.561-2.657,9.8c-0.858,3.094-1.864,6.741-2.631,9.822
	c-0.615,2.473-1.289,4.914-1.842,7.504l-0.41,1.937c-0.018,0.103-0.038,0.226-0.061,0.321c-0.001,0.007-0.039,0.148-0.042,0.157
	c-0.044,0.132-0.032,0.093-0.062,0.15c-0.32-1.692-0.679-3.555-1.08-5.179c-0.424-1.723-0.813-3.21-1.249-4.979
	c-1.23-4.999-2.658-9.803-3.935-14.746c-0.829-3.21-1.88-6.644-2.657-9.796c-0.403-1.634-0.896-3.227-1.315-4.857l-1.296,0.01
	L27.122,37.389z"/>
<path fill-rule="evenodd" clip-rule="evenodd" fill="#E31013" d="M45.491,19.665l0.008,35.136l5.974-0.003l0.059,0.008l0.006-5.093
	l-0.121-1.05c-0.147-0.244-0.127-0.511-0.211-0.902c-0.426-2.019-0.824-4.473-1.224-6.53c-0.584-3.013-4.072-22.117-4.23-22.316
	C45.59,19.123,45.532,19.359,45.491,19.665z"/>
<path fill-rule="evenodd" clip-rule="evenodd" fill="#F68565" d="M51.423,17.854l-0.005,30.81l0.121,1.05l0.46,2.264
	c0.072,0.355,0.348,2.159,0.436,2.299c0.165,0.192,4.122,0.092,4.502,0.092c2.038,0,1.739,0.591,1.106-2.624l-1.56-7.73
	c-0.164-0.849-0.295-1.769-0.506-2.616c-0.215-0.874-0.31-1.732-0.488-2.607l-2.556-12.962c-0.173-0.854-0.287-1.761-0.493-2.642
	c-0.199-0.861-0.987-4.542-0.924-5.202l-0.082-0.235L51.423,17.854z"/>
<path fill-rule="evenodd" clip-rule="evenodd" fill="#E31013" d="M31.509,38.518l3.146-7.27c1.074-2.415,2.021-4.863,3.071-7.288
	c0.513-1.187,1.046-2.44,1.526-3.616l3.081-7.287c0.178-0.424,1.438-3.487,1.588-3.627l0.803-2.802
	c0.123-0.522,0.565-2.554,0.769-2.866l0.036,1.763c0.362-0.916,0.721-1.723,1.1-2.596c0.165-0.379,0.377-0.914,0.565-1.34
	c0.112-0.258,0.507-1.131,0.543-1.382l-6.397,0.018c-0.059,0.573-1.538,6.056-1.812,7.17l-1.249,4.791
	c-0.84,3.169-1.603,6.388-2.466,9.545l-1.219,4.753c-0.565,2.342-1.267,4.793-1.854,7.169c-0.196,0.79-0.411,1.554-0.614,2.376
	C31.941,36.785,31.593,37.794,31.509,38.518z"/>
<path fill-rule="evenodd" clip-rule="evenodd" fill="#E31013" d="M13.615,5.369l0.049-1.728c0.01,0.015,0.02,0.034,0.022,0.046
	c0.123,0.266,0.15,0.54,0.336,1.26c0.107,0.417,0.21,0.842,0.32,1.27C14.56,7.06,14.75,7.842,14.982,8.7l0.305,0.626
	c0.103,0.22,0.148,0.362,0.243,0.58l1.522,3.668c0.229,0.37,0.501,0.44,0.743,0.933c0.204,0.417,0.325,0.89,0.303,1.459
	c0.077,0.356,0.32,0.813,0.465,1.141c0.153,0.353,0.302,0.782,0.491,1.164c0.171,0.351,0.937,2.115,0.999,2.492
	c2.463,0.901,2.526,0.98,2.423,4.422c0.144,0.594,0.366,1.534,0.4,2.179c0.165,0.227,0.377,0.876,0.535,1.224
	c0.687,1.515,1.439,3.482,2.131,5.063c0.181,0.415,0.389,0.814,0.547,1.225c0.168,0.434,0.316,0.849,0.511,1.268
	c0.091,0.197,0.542,1.129,0.521,1.245L17.954,0.222l-6.441-0.016C11.49,0.497,12.36,2.447,12.53,2.809
	c0.207,0.436,0.348,0.866,0.545,1.292C13.243,4.465,13.504,4.976,13.615,5.369z"/>
<path fill-rule="evenodd" clip-rule="evenodd" fill="#F68565" d="M3.774,38.188c0.036,0.429-0.269,1.544-0.369,2.035
	c-0.073,0.357-0.093,0.71-0.163,1.046l-1.002,5.044c-0.238,1.291-0.576,2.745-0.787,4.026c-0.098,0.592-0.766,3.699-0.743,4.006
	c0.881,0.09,2.118,0.021,3.037,0.021c0.212,0,2.823,0.096,2.986-0.078c0.196-0.332,0.369-1.915,0.473-2.446l0.478-2.414l0.01-0.236
	V30.907c-0.313,0.215-0.969,0.912-1.3,1.248l-0.576,0.693c-1.063,1.388-0.783,1.562-0.741,2.821
	c0.015,0.413,0.008,0.858,0.008,1.273c-0.001,0.205,0.003,0.436-0.005,0.638c-0.005,0.141,0.01,0.144-0.031,0.286
	c-0.101,0.346,0.01,0.158-0.158,0.194l-0.24-1.523c-0.189,0.335-0.207,1.593-0.305,1.831c-0.067,0.164-0.001,0.1-0.153,0.162
	c-0.173-0.229-0.117-0.423-0.122-0.763c-0.005-0.277-0.035-0.638-0.065-0.913L3.774,38.188z"/>
<path fill-rule="evenodd" clip-rule="evenodd" fill="#F89679" d="M35.361,42.802c-0.045,0.241-0.129,0.382-0.204,0.646
	c-0.056,0.199-0.024,0.119-0.054,0.309c-0.055,0.353-0.024-0.113-0.05,0.159c0.006,0.051-2.037,8.331-2.394,9.481
	c-0.114,0.369-0.294,0.996-0.336,1.393l4.093,0.011l8.026-32.195c0.072-0.294,0.315-0.796,0.158-1.017
	c-0.06-0.091-0.127,0.204-0.274,0.586l-0.868,1.994c-0.1,0.227-0.198,0.439-0.292,0.643c-0.103,0.222-0.173,0.431-0.277,0.683
	l-1.727,4.001c-0.093,0.197-0.233,0.439-0.297,0.654c-0.197,0.656-1.826,4.294-2.005,4.661c-0.251,0.519-0.752,1.932-1.125,2.695
	c-0.509,1.043-1.229,2.825-1.723,3.989c-0.09,0.212-0.178,0.375-0.297,0.662C35.603,42.425,35.592,42.676,35.361,42.802z"/>
<path fill-rule="evenodd" clip-rule="evenodd" fill="#FBB39B" d="M7.691,18.129l0.002,0.498c0.054,1.899-0.008,4.458-0.007,6.497
	l0.054,0.855c0.005,0.013,0.015,0.033,0.024,0.047c0.236-0.309,0.994-1.55,1.056-1.994c0.124-0.906-0.063-1.431,0.418-2.629
	c0.794-1.973,2.717-1.053,4.419-1.635l-0.001-1.952c-0.158-0.628-0.504-1.177-0.56-1.971c-0.03-0.412,0.018-0.812,0.109-1.156
	c0.118-0.452,0.24-0.543,0.446-0.868l-0.036-8.452c-0.111-0.393-0.372-0.904-0.54-1.268c-0.197-0.426-0.338-0.857-0.545-1.292
	c-0.17-0.362-1.04-2.313-1.017-2.603L11.198,0.2l-0.872,4.549C9.995,6.267,9.765,7.728,9.454,9.217
	C9.318,9.867,7.843,17.801,7.691,18.129z"/>
<path fill-rule="evenodd" clip-rule="evenodd" fill="#F68565" d="M43.921,9.43l-2.658,10.367c-0.167,0.628-0.312,1.421-0.519,2.104
	l-2.169,8.292c-0.25,1.354-1.063,3.855-1.351,5.212c-0.418,1.955-1.129,4.284-1.591,6.294c-0.082,0.364-0.21,0.648-0.271,1.104
	c0.23-0.126,0.242-0.377,0.353-0.645c0.119-0.287,0.208-0.45,0.297-0.662c0.494-1.164,1.214-2.946,1.723-3.989
	c0.372-0.764,0.873-2.177,1.125-2.695c0.179-0.367,1.808-4.005,2.005-4.661c0.063-0.215,0.204-0.457,0.297-0.654l1.727-4.001
	c0.104-0.251,0.175-0.46,0.277-0.683c0.095-0.204,0.193-0.416,0.292-0.643l0.868-1.994c0.147-0.382,0.214-0.677,0.274-0.586
	c0.263-0.031,0.07,0.01,0.144-0.095c-0.107-0.185,0.04-0.419,0.113-0.707l0.587-2.365c0.082-0.971,0.018-2.211,0.018-3.213
	c0-1.079,0-2.159,0-3.239c0-1.968-0.141-4.576,0.067-6.446l-0.036-1.763c-0.204,0.312-0.646,2.344-0.769,2.866L43.921,9.43z"/>
<path fill-rule="evenodd" clip-rule="evenodd" fill="#F89679" d="M21.404,54.79c-0.023-0.335-0.112-0.612-0.116-1.004
	c-0.013-1.59,0.047-1.379-0.679-2.755c-0.942-1.782-1.425-3.702-1.65-5.274c-0.272-0.484-0.663-0.959-0.875-1.479
	c-0.253-0.592-0.117-0.589-0.248-1.431c-0.158-0.816-0.303-0.62-0.594-1.374c-0.253-0.265-1.678-5.248-2.418-6.687
	c-0.253,2.241,0.472,4-0.109,7.355c0.238,1.054,0.18,1.272,0.024,2.378c-0.08,0.571-0.235,0.858-0.16,1.156
	c1.357,3.399,0.445,7.723,0.832,8.899c0.111,0.333,0.269,0.233,0.664,0.227C17.677,54.778,20.01,54.886,21.404,54.79z"/>
<path fill-rule="evenodd" clip-rule="evenodd" fill="#E31013" d="M7.696,49.192l-0.01,0.236l0.002,5.374
	c1.144-0.002,2.288-0.008,3.432-0.003c0.676,0.003,0.906-0.058,1.403-0.312c1.503-0.77,0.78-1.663,0.224-3.603
	c-0.47-1.638-1.415-4.008-0.973-5.729c0.075-0.293-0.031-1.106,0.003-1.593c-0.123-0.277,0.001-0.151-0.398-1.155
	c-0.62-1.555-1.125-5.346-1.235-5.912C10.125,36.618,7.85,48.763,7.696,49.192z"/>
<path fill-rule="evenodd" clip-rule="evenodd" fill="#F89679" d="M28.858,54.746l-2.487-0.014l-3.205-12.955
	c-0.033-0.074-0.351-1.138-0.353-1.211c-0.175-0.126-0.015,0.018-0.121-0.128c0,0-0.072-0.129-0.074-0.132
	c-0.044-0.095-0.042-0.121-0.082-0.233l-0.641-1.454c-0.245-0.533-0.625-1.364-0.828-1.914c-0.116-0.313-0.268-0.581-0.427-0.96
	l-1.053-2.446c-0.08-0.241-0.217-0.362-0.341-0.57c-0.146,1.416,1.552,6.204,1.678,8.526c0.142,2.593,0.22,1.708,0.481,3.32
	c0.054,0.333,0.075,0.498,0.07,0.885c-0.01,0.598-0.044,0.394,0.212,0.805c1.405,2.264-0.231,6.04,2.058,7.797
	c0.217,0.167,0.409,0.208,0.633,0.315c0.214,0.101,0.522,0.353,0.624,0.39C25.246,54.856,28.684,54.827,28.858,54.746z"/>
<path fill-rule="evenodd" clip-rule="evenodd" fill="#FBB39B" d="M7.696,30.907v18.285c0.154-0.43,2.45-12.558,2.448-12.696
	c-0.028-2.288-0.318-4.006,0.491-5.692c0.342-0.715,0.139-0.726,0.284-1.429c0.114-0.541,0.272-0.86,0.405-1.378
	c0.168-0.659,0.113-0.909,0.036-1.591c-0.038-0.325-0.108-1.32-0.24-1.52c-0.062,0.114-0.189,0.716-0.246,0.881
	c-0.456,1.345-1.237,1.986-1.33,2.221c-0.126,0.316-0.132,0.382-0.369,0.776c-0.148,0.247-0.349,0.444-0.494,0.724
	C8.231,30.339,7.845,30.649,7.696,30.907z"/>
<path fill-rule="evenodd" clip-rule="evenodd" fill="#E31013" d="M51.423,17.854l0.013-0.106l0.082,0.235l0.02-17.763l-3.571-0.024
	c0.248,1.498,0.576,2.94,0.867,4.437l0.854,4.417c0.109,0.695,0.275,1.519,0.422,2.18C50.344,12.289,51.256,17.583,51.423,17.854z"
	/>
<path fill-rule="evenodd" clip-rule="evenodd" fill="#E31013" d="M7.691,18.129c0.152-0.328,1.627-8.263,1.763-8.912
	c0.312-1.49,0.542-2.95,0.873-4.468L11.198,0.2L7.686,0.217L7.691,18.129z"/>
<path fill-rule="evenodd" clip-rule="evenodd" fill="#E31013" d="M28.858,54.746l0.013-0.058c-0.215-0.282-0.566-1.224-0.726-1.601
	c-0.958-2.242-2.717-6.097-3.5-8.134c-0.22-0.574-0.475-1.028-0.707-1.578l-0.617-1.411c-0.006-0.014-0.015-0.029-0.024-0.041
	c-0.006-0.013-0.018-0.027-0.026-0.039c-0.077-0.103-0.017-0.039-0.104-0.107l3.205,12.955L28.858,54.746z"/>
<path fill-rule="evenodd" clip-rule="evenodd" fill="#F68565" d="M13.615,5.369l0.036,8.452c0.303-0.212,0.447-0.395,0.945-0.54
	c0.447-0.129,0.95-0.085,1.449-0.113c-0.181-0.793-0.336-1.468-0.542-2.228c-0.171-0.635-0.472-1.642-0.521-2.24
	c-0.232-0.858-0.423-1.64-0.64-2.484c-0.109-0.428-0.212-0.852-0.32-1.27c-0.186-0.72-0.214-0.994-0.336-1.26
	c-0.003-0.012-0.013-0.031-0.022-0.046L13.615,5.369z"/>
<path fill-rule="evenodd" clip-rule="evenodd" fill="#E31013" d="M30.36,54.713l1.963,0.077c0.042-0.396,0.222-1.023,0.336-1.393
	c0.357-1.15,2.4-9.431,2.394-9.481c-0.199,0.199-0.238,0.387-0.356,0.649c-0.1,0.224-0.209,0.423-0.302,0.661
	c-0.186,0.48-0.349,0.899-0.553,1.35c-0.828,1.813-1.503,3.652-2.322,5.372c-0.206,0.431-0.359,0.909-0.566,1.329
	C30.755,53.682,30.517,54.236,30.36,54.713z"/>
<path fill-rule="evenodd" clip-rule="evenodd" fill="#F68565" d="M19.242,32.719c0.111,0.192,0.268,0.337,0.348,0.58l1.053,2.446
	c0.16,0.379,0.312,0.646,0.427,0.96c0.203,0.55,0.583,1.381,0.828,1.914l0.641,1.454c0.039,0.112,0.038,0.139,0.082,0.233
	c0.002,0.003,0.074,0.132,0.074,0.132c0.106,0.146-0.054,0.002,0.121,0.128l-0.692-2.99l-0.265,0.007
	c0.035-0.34,0.139-0.261,0.278-0.55c-0.237-0.034-0.137,0.199-0.295-0.462l-0.384-1.634c-0.1-0.367-0.158-0.691-0.272-1.07
	c-0.387-1.276-1.159-4.468-1.498-5.496c-0.318,0.781-0.372,0.948-0.372,2.09C19.313,31.3,19.217,31.968,19.242,32.719z"/>
<path fill-rule="evenodd" clip-rule="evenodd" fill="#FBB39B" d="M19.686,28.371c0.339,1.028,1.111,4.22,1.498,5.496
	c0.114,0.379,0.173,0.703,0.272,1.07l0.384,1.634c0.158,0.661,0.059,0.428,0.295,0.462c0.962-1.347,1.209-1.487,0.757-2.523
	c-0.388-0.888-1.064-1.649-1.369-2.377c-0.215-0.515-0.648-2.51-0.677-3.068c-0.323-1.465-0.289-3.339-0.396-3.551
	c-0.165,1.077-0.144,1.114-0.292,1.642C19.976,27.777,19.95,27.89,19.686,28.371z"/>
<path fill-rule="evenodd" clip-rule="evenodd" fill="#F68565" d="M5.594,29.069c0.348-0.256,1.421-1.797,1.667-2.211l0.503-0.833
	c-0.01-0.015-0.02-0.034-0.024-0.047l-0.054-0.855c-0.001-2.038,0.061-4.597,0.007-6.497c-0.129,0.201-0.227,0.961-0.297,1.256
	c-0.266,1.123-0.506,2.693-0.77,3.925c-0.186,0.868-0.297,1.72-0.493,2.627C5.966,27.206,5.692,28.289,5.594,29.069z"/>
<path fill-rule="evenodd" clip-rule="evenodd" fill="#F68565" d="M31.138,39.758c-0.214,0.157-0.286,0.48-0.429,0.826
	c-0.217,0.53-0.902,2.28-1.097,2.544l-0.587-1.194c-0.088-0.25-0.147-0.392-0.261-0.64c-0.1-0.219-0.189-0.404-0.272-0.623
	l-0.78-1.894c-0.212-0.56-0.136-0.479-0.359-0.591c0.044,0.54,0.793,3.399,0.976,4.17l1.03,4.109
	c0.241-0.255,0.372-1.164,0.465-1.621C30.073,43.604,30.926,40.91,31.138,39.758z"/>
<path fill-rule="evenodd" clip-rule="evenodd" fill="#FBB39B" d="M20.054,20.763c-0.062-0.377-0.827-2.141-0.999-2.492
	c-0.189-0.382-0.338-0.811-0.491-1.164c-0.145-0.328-0.388-0.785-0.465-1.141c-0.059,0.127-0.106,0.552-0.166,0.783
	c-0.069,0.255-0.142,0.534-0.203,0.749c-0.119,0.434-0.383,1.156-0.207,1.671c0.106,0.307,0.54,0.969,0.845,1.121
	C18.501,20.357,19.837,20.749,20.054,20.763z"/>
<path fill-rule="evenodd" clip-rule="evenodd" fill="#FBB39B" d="M16.045,13.168c0.171,0.067,0.323,0.103,0.504,0.176
	c0.199,0.082,0.24,0.15,0.504,0.23l-1.522-3.668c-0.095-0.217-0.14-0.359-0.243-0.58L14.982,8.7c0.049,0.599,0.349,1.605,0.521,2.24
	C15.708,11.7,15.864,12.375,16.045,13.168z"/>
<path fill-rule="evenodd" clip-rule="evenodd" fill="#FBB39B" d="M13.657,19.768c0.447-0.144,0.708-0.292,0.707-0.808
	c-0.196-0.142-0.362-0.052-0.429-0.458c-0.073-0.434-0.047-0.407-0.279-0.686L13.657,19.768z"/>
<g>
	<path fill="#4B4B4B" d="M74.141,30.755c0-0.444-0.132-0.822-0.396-1.135c-0.264-0.313-0.593-0.607-0.989-0.885
		c-0.396-0.277-0.826-0.563-1.291-0.853C71,27.59,70.571,27.25,70.175,26.862c-0.396-0.389-0.725-0.847-0.989-1.374
		s-0.396-1.173-0.396-1.936c0-0.708,0.107-1.308,0.323-1.801c0.215-0.492,0.51-0.895,0.885-1.208
		c0.375-0.312,0.819-0.541,1.333-0.687c0.513-0.146,1.062-0.218,1.645-0.218c0.708,0,1.367,0.069,1.978,0.208
		c0.61,0.139,1.117,0.326,1.52,0.562l-0.812,2.311c-0.236-0.167-0.586-0.319-1.051-0.458s-0.968-0.208-1.509-0.208
		s-0.958,0.111-1.249,0.333s-0.438,0.548-0.438,0.979c0,0.389,0.132,0.732,0.396,1.03c0.263,0.299,0.593,0.587,0.989,0.864
		c0.396,0.278,0.826,0.565,1.291,0.864c0.465,0.299,0.896,0.646,1.291,1.041s0.725,0.861,0.989,1.394
		c0.264,0.535,0.396,1.17,0.396,1.905c0,0.736-0.107,1.374-0.323,1.915c-0.215,0.542-0.521,0.989-0.916,1.344
		c-0.396,0.354-0.871,0.621-1.426,0.801c-0.556,0.181-1.173,0.271-1.853,0.271c-0.861,0-1.614-0.083-2.259-0.249
		c-0.646-0.167-1.142-0.354-1.489-0.563l0.854-2.353c0.278,0.167,0.659,0.333,1.145,0.5c0.486,0.166,1.006,0.249,1.562,0.249
		C73.447,32.378,74.141,31.837,74.141,30.755z"/>
	<path fill="#4B4B4B" d="M82.719,28.485l0.292,2.498h0.083l0.333-2.52l2.124-8.535h2.769l-4.414,14.677h-1.999l-4.455-14.677h3.102
		L82.719,28.485z"/>
	<path fill="#4B4B4B" d="M89.485,19.929h7.287v2.415h-4.664v3.581h4.227v2.414h-4.227v3.748h4.747v2.415h-7.37V19.929z"/>
	<path fill="#4B4B4B" d="M105.286,19.929h2.478v9.452c0,1.888-0.385,3.255-1.156,4.101c-0.77,0.847-1.835,1.271-3.196,1.271
		c-1.596,0-2.766-0.413-3.508-1.239c-0.743-0.825-1.114-2.085-1.114-3.778v-9.805h2.623v9.347c0,1.139,0.153,1.933,0.458,2.384
		s0.812,0.677,1.52,0.677c0.68,0,1.166-0.239,1.457-0.719c0.292-0.479,0.438-1.259,0.438-2.342V19.929z"/>
	<path fill="#4B4B4B" d="M118.256,33.919c-0.361,0.306-0.843,0.527-1.447,0.666c-0.604,0.139-1.205,0.208-1.801,0.208
		c-0.75,0-1.447-0.128-2.092-0.385c-0.645-0.257-1.211-0.684-1.697-1.28s-0.867-1.381-1.145-2.353s-0.417-2.165-0.417-3.581
		c0-1.471,0.156-2.692,0.469-3.664c0.312-0.971,0.722-1.745,1.228-2.321c0.507-0.576,1.086-0.982,1.739-1.218
		c0.652-0.236,1.312-0.354,1.978-0.354c0.68,0,1.273,0.056,1.78,0.167c0.506,0.111,0.919,0.236,1.239,0.375l-0.521,2.311
		c-0.264-0.139-0.573-0.246-0.927-0.323c-0.354-0.076-0.773-0.114-1.259-0.114c-0.958,0-1.693,0.416-2.207,1.249
		c-0.514,0.833-0.77,2.138-0.77,3.914c0,0.763,0.059,1.461,0.177,2.092c0.118,0.632,0.305,1.176,0.562,1.634
		s0.583,0.813,0.979,1.063s0.871,0.374,1.426,0.374c0.486,0,0.902-0.065,1.249-0.197c0.347-0.132,0.659-0.288,0.937-0.469
		L118.256,33.919z M115.758,19.159h-1.811l-2.165-1.957V16.39h1.895l0.874,0.937l0.354,0.625l0.354-0.604l0.937-0.958h1.832v0.833
		L115.758,19.159z"/>
	<path fill="#4B4B4B" d="M120.151,19.929h2.623v14.573h-2.623V19.929z"/>
	<path fill="#4B4B4B" d="M133.038,34.502h-7.745V19.929h2.624v12.158h5.121V34.502z"/>
	<path fill="#4B4B4B" d="M134.766,19.929h2.623v14.573h-2.623V19.929z"/>
	<path fill="#4B4B4B" d="M145.008,30.755c0-0.444-0.132-0.822-0.396-1.135s-0.593-0.607-0.988-0.885s-0.826-0.563-1.291-0.853
		c-0.465-0.292-0.896-0.632-1.291-1.021s-0.726-0.847-0.988-1.374c-0.265-0.527-0.396-1.173-0.396-1.936
		c0-0.708,0.106-1.308,0.322-1.801c0.215-0.492,0.51-0.895,0.885-1.208c0.375-0.312,0.818-0.541,1.332-0.687
		c0.514-0.146,1.063-0.218,1.646-0.218c0.707,0,1.366,0.069,1.978,0.208c0.61,0.139,1.117,0.326,1.52,0.562l-0.812,2.311
		c-0.236-0.167-0.587-0.319-1.052-0.458s-0.968-0.208-1.509-0.208c-0.542,0-0.958,0.111-1.25,0.333
		c-0.291,0.222-0.437,0.548-0.437,0.979c0,0.389,0.132,0.732,0.396,1.03c0.264,0.299,0.593,0.587,0.988,0.864
		c0.396,0.278,0.826,0.565,1.291,0.864c0.465,0.299,0.896,0.646,1.291,1.041s0.725,0.861,0.989,1.394
		c0.263,0.535,0.396,1.17,0.396,1.905c0,0.736-0.108,1.374-0.323,1.915c-0.215,0.542-0.521,0.989-0.916,1.344
		c-0.396,0.354-0.871,0.621-1.426,0.801c-0.556,0.181-1.173,0.271-1.854,0.271c-0.86,0-1.613-0.083-2.259-0.249
		c-0.646-0.167-1.142-0.354-1.488-0.563l0.854-2.353c0.277,0.167,0.659,0.333,1.146,0.5c0.485,0.166,1.006,0.249,1.562,0.249
		C144.314,32.378,145.008,31.837,145.008,30.755z M144.696,19.159h-1.812l-2.165-1.957V16.39h1.895l0.874,0.937l0.354,0.625
		l0.354-0.604l0.937-0.958h1.832v0.833L144.696,19.159z"/>
	<path fill="#4B4B4B" d="M158.229,22.344h-3.456v12.158h-2.624V22.344h-3.455v-2.415h9.535V22.344z"/>
	<path fill="#4B4B4B" d="M159.748,19.929h7.287v2.415h-4.663v3.581h4.226v2.414h-4.226v3.748h4.746v2.415h-7.37V19.929z"/>
	<path fill="#4B4B4B" d="M180.234,19.929h2.478v9.452c0,1.888-0.386,3.255-1.155,4.101c-0.771,0.847-1.836,1.271-3.196,1.271
		c-1.596,0-2.766-0.413-3.508-1.239c-0.743-0.825-1.114-2.085-1.114-3.778v-9.805h2.624v9.347c0,1.139,0.152,1.933,0.458,2.384
		c0.305,0.451,0.812,0.677,1.52,0.677c0.68,0,1.166-0.239,1.457-0.719c0.292-0.479,0.438-1.259,0.438-2.342V19.929z"/>
	<path fill="#4B4B4B" d="M194.724,30.755c0-0.444-0.132-0.822-0.396-1.135s-0.593-0.607-0.988-0.885s-0.826-0.563-1.291-0.853
		c-0.465-0.292-0.896-0.632-1.291-1.021s-0.726-0.847-0.988-1.374c-0.265-0.527-0.396-1.173-0.396-1.936
		c0-0.708,0.106-1.308,0.322-1.801c0.215-0.492,0.51-0.895,0.885-1.208c0.375-0.312,0.818-0.541,1.332-0.687
		c0.514-0.146,1.063-0.218,1.646-0.218c0.707,0,1.366,0.069,1.978,0.208c0.61,0.139,1.117,0.326,1.52,0.562l-0.812,2.311
		c-0.236-0.167-0.587-0.319-1.052-0.458s-0.968-0.208-1.509-0.208c-0.542,0-0.958,0.111-1.25,0.333
		c-0.291,0.222-0.437,0.548-0.437,0.979c0,0.389,0.132,0.732,0.396,1.03c0.264,0.299,0.593,0.587,0.988,0.864
		c0.396,0.278,0.826,0.565,1.291,0.864c0.465,0.299,0.896,0.646,1.291,1.041s0.725,0.861,0.989,1.394
		c0.263,0.535,0.396,1.17,0.396,1.905c0,0.736-0.108,1.374-0.323,1.915c-0.215,0.542-0.521,0.989-0.916,1.344
		c-0.396,0.354-0.871,0.621-1.426,0.801c-0.556,0.181-1.173,0.271-1.854,0.271c-0.86,0-1.613-0.083-2.259-0.249
		c-0.646-0.167-1.142-0.354-1.488-0.563l0.854-2.353c0.277,0.167,0.659,0.333,1.146,0.5c0.485,0.166,1.006,0.249,1.562,0.249
		C194.03,32.378,194.724,31.837,194.724,30.755z"/>
	<path fill="#4B4B4B" d="M199.179,20.075c0.5-0.111,1.048-0.198,1.646-0.26c0.596-0.063,1.193-0.094,1.79-0.094
		c0.639,0,1.267,0.059,1.884,0.177c0.618,0.118,1.17,0.351,1.655,0.697c0.485,0.347,0.882,0.836,1.187,1.468
		c0.306,0.632,0.458,1.454,0.458,2.467c0,0.916-0.128,1.693-0.385,2.332c-0.257,0.639-0.601,1.159-1.03,1.561
		c-0.431,0.402-0.927,0.694-1.489,0.874c-0.562,0.181-1.142,0.271-1.738,0.271c-0.056,0-0.146,0-0.271,0s-0.257-0.003-0.396-0.01
		s-0.274-0.018-0.406-0.031s-0.226-0.028-0.28-0.042v5.018h-2.624V20.075z M201.803,27.132c0.083,0.028,0.239,0.052,0.468,0.073
		c0.229,0.021,0.386,0.031,0.469,0.031c0.305,0,0.597-0.042,0.874-0.125c0.277-0.083,0.524-0.226,0.739-0.427
		s0.385-0.479,0.51-0.833s0.188-0.802,0.188-1.343c0-0.458-0.059-0.847-0.177-1.166c-0.118-0.319-0.277-0.572-0.479-0.76
		s-0.435-0.323-0.697-0.406c-0.265-0.083-0.542-0.125-0.833-0.125c-0.431,0-0.784,0.035-1.062,0.104V27.132z"/>
	<path fill="#4B4B4B" d="M217.271,34.502h-7.745V19.929h2.624v12.158h5.121V34.502z"/>
	<path fill="#4B4B4B" d="M218.999,19.929h2.623v14.573h-2.623V19.929z"/>
	<path fill="#4B4B4B" d="M232.906,22.344h-3.456v12.158h-2.624V22.344h-3.455v-2.415h9.535V22.344z"/>
	<path fill="#4B4B4B" d="M240.858,19.929h2.478v9.452c0,1.888-0.386,3.255-1.155,4.101c-0.771,0.847-1.836,1.271-3.196,1.271
		c-1.596,0-2.766-0.413-3.508-1.239c-0.743-0.825-1.114-2.085-1.114-3.778v-9.805h2.624v9.347c0,1.139,0.152,1.933,0.458,2.384
		c0.305,0.451,0.812,0.677,1.52,0.677c0.68,0,1.166-0.239,1.457-0.719c0.292-0.479,0.438-1.259,0.438-2.342V19.929z"/>
	<path fill="#C80000" d="M78.367,47.604l0.292-2.79h-0.104l-0.77,2.498l-2.374,5.122h-0.875l-2.519-5.143l-0.771-2.519h-0.125
		l0.396,2.811v7.536h-2.478V40.546h2.519l3.04,6.308l0.5,1.812h0.083l0.479-1.853l2.853-6.267h2.478v14.573h-2.624V47.604z"/>
	<path fill="#C80000" d="M83.281,40.546h7.287v2.415h-4.664v3.581h4.227v2.415h-4.227v3.747h4.747v2.415h-7.37V40.546z"/>
	<path fill="#C80000" d="M92.649,40.546c0.25-0.042,0.531-0.073,0.843-0.094c0.312-0.021,0.631-0.042,0.958-0.063
		c0.326-0.021,0.642-0.034,0.947-0.042c0.305-0.007,0.576-0.01,0.812-0.01c1.152,0,2.113,0.177,2.883,0.53
		c0.771,0.354,1.388,0.854,1.853,1.499c0.465,0.646,0.794,1.42,0.989,2.321c0.194,0.902,0.292,1.909,0.292,3.019
		c0,1.014-0.094,1.981-0.281,2.904c-0.187,0.924-0.517,1.735-0.989,2.437c-0.472,0.701-1.11,1.26-1.916,1.676
		c-0.805,0.416-1.818,0.625-3.04,0.625c-0.18,0-0.423-0.008-0.729-0.021c-0.306-0.014-0.625-0.031-0.958-0.052
		s-0.653-0.042-0.958-0.063s-0.541-0.045-0.708-0.073V40.546z M96.479,42.753c-0.222,0-0.448,0.003-0.677,0.01
		c-0.229,0.008-0.406,0.024-0.531,0.053V52.85c0.042,0.015,0.115,0.024,0.219,0.031c0.104,0.008,0.215,0.015,0.333,0.021
		c0.118,0.007,0.229,0.014,0.333,0.021s0.177,0.011,0.219,0.011c0.625,0,1.138-0.146,1.541-0.438
		c0.402-0.292,0.718-0.68,0.947-1.166c0.229-0.485,0.389-1.044,0.479-1.676c0.09-0.632,0.135-1.294,0.135-1.988
		c0-0.639-0.039-1.256-0.115-1.854c-0.076-0.596-0.222-1.12-0.437-1.571c-0.215-0.451-0.521-0.813-0.916-1.083
		S97.104,42.753,96.479,42.753z"/>
	<path fill="#C80000" d="M104.433,40.546h2.623v14.573h-2.623V40.546z"/>
	<path fill="#C80000" d="M117.84,54.536c-0.361,0.306-0.843,0.527-1.447,0.666c-0.604,0.139-1.205,0.208-1.801,0.208
		c-0.75,0-1.447-0.128-2.092-0.385c-0.645-0.257-1.211-0.684-1.697-1.28s-0.867-1.381-1.145-2.353s-0.417-2.165-0.417-3.581
		c0-1.471,0.156-2.692,0.469-3.664c0.312-0.972,0.722-1.745,1.228-2.321c0.507-0.576,1.086-0.981,1.739-1.218
		c0.652-0.236,1.312-0.354,1.978-0.354c0.68,0,1.273,0.056,1.78,0.167c0.506,0.111,0.919,0.236,1.239,0.375l-0.521,2.311
		c-0.264-0.139-0.573-0.246-0.927-0.322c-0.354-0.076-0.773-0.115-1.259-0.115c-0.958,0-1.693,0.417-2.207,1.249
		c-0.514,0.833-0.77,2.138-0.77,3.914c0,0.764,0.059,1.461,0.177,2.093c0.118,0.632,0.305,1.176,0.562,1.634
		s0.583,0.813,0.979,1.063s0.871,0.374,1.426,0.374c0.486,0,0.902-0.065,1.249-0.197c0.347-0.132,0.659-0.288,0.937-0.469
		L117.84,54.536z"/>
	<path fill="#C80000" d="M119.734,40.546h2.623v14.573h-2.623V40.546z"/>
	<path fill="#C80000" d="M128.082,47.957l-0.957-2.561h-0.104l0.333,2.52v7.203h-2.478V40.441h2.02l4.185,7.328l0.896,2.52h0.125
		l-0.333-2.478v-7.266h2.478v14.678h-2.02L128.082,47.957z"/>
	<path fill="#C80000" d="M141.635,51.372c0-0.444-0.132-0.822-0.396-1.135s-0.593-0.607-0.988-0.885s-0.826-0.563-1.291-0.854
		c-0.465-0.292-0.896-0.632-1.291-1.021s-0.726-0.847-0.988-1.374c-0.265-0.527-0.396-1.173-0.396-1.937
		c0-0.708,0.106-1.308,0.322-1.801c0.215-0.492,0.51-0.896,0.885-1.207c0.375-0.313,0.818-0.542,1.332-0.688
		s1.063-0.219,1.646-0.219c0.707,0,1.366,0.07,1.978,0.209c0.61,0.139,1.117,0.326,1.52,0.562l-0.812,2.312
		c-0.236-0.167-0.587-0.319-1.052-0.458s-0.968-0.209-1.509-0.209c-0.542,0-0.958,0.111-1.25,0.333
		c-0.291,0.223-0.437,0.549-0.437,0.979c0,0.389,0.132,0.732,0.396,1.031c0.264,0.298,0.593,0.586,0.988,0.863
		c0.396,0.278,0.826,0.566,1.291,0.864c0.465,0.299,0.896,0.646,1.291,1.041s0.725,0.861,0.989,1.395
		c0.263,0.535,0.396,1.17,0.396,1.905c0,0.736-0.108,1.374-0.323,1.915c-0.215,0.542-0.521,0.989-0.916,1.344
		c-0.396,0.354-0.871,0.621-1.426,0.801c-0.556,0.181-1.173,0.271-1.854,0.271c-0.86,0-1.613-0.083-2.259-0.249
		c-0.646-0.167-1.142-0.354-1.488-0.563l0.854-2.353c0.277,0.167,0.659,0.333,1.146,0.5c0.485,0.166,1.006,0.249,1.562,0.249
		C140.941,52.995,141.635,52.454,141.635,51.372z"/>
	<path fill="#C80000" d="M149.275,48.873h-0.562v6.246h-2.624V40.546h2.624V47l0.52-0.25l3.061-6.204h2.957l-3.331,6.127
		l-0.979,0.769l0.999,0.793l3.852,6.885h-3.206L149.275,48.873z"/>
	<path fill="#C80000" d="M157.541,40.546h2.623v14.573h-2.623V40.546z"/>
	<path fill="#C80000" d="M167.367,40.546h7.287v2.415h-4.663v3.789h4.288v2.415h-4.288v5.954h-2.624V40.546z"/>
	<path fill="#C80000" d="M182.399,51.788h-3.436l-0.854,3.331h-2.603l4.227-14.678h2.061l4.247,14.678h-2.748L182.399,51.788z
		 M179.526,49.664h2.415l-0.833-3.394l-0.333-2.29h-0.084l-0.354,2.312L179.526,49.664z"/>
	<path fill="#C80000" d="M190.538,48.873h-0.562v6.246h-2.624V40.546h2.624V47l0.52-0.25l3.061-6.204h2.957l-3.331,6.127
		l-0.979,0.769l0.999,0.793l3.852,6.885h-3.206L190.538,48.873z"/>
	<path fill="#C80000" d="M205.008,40.546h2.478v9.452c0,1.888-0.386,3.255-1.155,4.101c-0.771,0.847-1.836,1.271-3.196,1.271
		c-1.596,0-2.766-0.413-3.508-1.239c-0.743-0.825-1.114-2.085-1.114-3.778v-9.806h2.624v9.348c0,1.139,0.152,1.933,0.458,2.384
		c0.305,0.451,0.812,0.677,1.52,0.677c0.68,0,1.166-0.239,1.457-0.719c0.292-0.479,0.438-1.259,0.438-2.342V40.546z"/>
	<path fill="#C80000" d="M217.458,55.119h-7.745V40.546h2.624v12.158h5.121V55.119z"/>
	<path fill="#C80000" d="M225.433,42.961h-3.456v12.158h-2.624V42.961h-3.455v-2.415h9.535V42.961z"/>
	<path fill="#C80000" d="M226.951,40.546h7.287v2.415h-4.663v3.581h4.226v2.415h-4.226v3.747h4.746v2.415h-7.37V40.546z"/>
	<path fill="#C80000" d="M245.085,42.961h-3.456v12.158h-2.624V42.961h-3.455v-2.415h9.535V42.961z"/>
</g>
</svg>
